<?xml version="1.0" encoding="utf-8"?>
<!-- Generator: Adobe Illustrator 16.0.0, SVG Export Plug-In . SVG Version: 6.00 Build 0)  -->
<!DOCTYPE svg PUBLIC "-//W3C//DTD SVG 1.1//EN" "http://www.w3.org/Graphics/SVG/1.1/DTD/svg11.dtd">
<svg version="1.1" id="Layer_1" xmlns="http://www.w3.org/2000/svg" xmlns:xlink="http://www.w3.org/1999/xlink" x="0px" y="0px"
	 width="36px" height="36px" viewBox="0 0 36 36" enable-background="new 0 0 36 36" xml:space="preserve">
<g>
	<path fill="#7D8DC6" d="M18.922,32.643H5.995c-0.552,0-1-0.447-1-1V5.336c0-0.552,0.448-1,1-1h24c0.553,0,1,0.448,1,1v11.748h-2
		V6.336h-22v24.306h11.927V32.643z"/>
</g>
<g>
	<circle fill="#FD397A" cx="26.373" cy="21.799" r="3.623"/>
</g>
<g>
	<path fill="#FD397A" d="M20.166,32.643c0-3.427,2.779-6.206,6.207-6.206c3.427,0,6.206,2.779,6.206,6.206"/>
</g>
<g>
	<rect x="9.5" y="9.563" fill="#7D8DC6" width="4.19" height="3.875"/>
</g>
<g>
	<rect x="15.841" y="9.563" fill="#7D8DC6" width="4.19" height="3.875"/>
</g>
<g>
	<rect x="22.182" y="9.563" fill="#7D8DC6" width="4.191" height="3.875"/>
</g>
<g>
	<rect x="9.5" y="16.542" fill="#7D8DC6" width="4.19" height="3.875"/>
</g>
<g>
	<rect x="15.841" y="16.542" fill="#7D8DC6" width="4.19" height="3.875"/>
</g>
<g>
	<rect x="9.5" y="23.521" fill="#7D8DC6" width="4.19" height="3.875"/>
</g>
<g>
	<rect x="15.841" y="23.521" fill="#7D8DC6" width="4.19" height="3.875"/>
</g>
</svg>
