<svg width="42" height="30" viewBox="0 0 42 30" fill="none" xmlns="http://www.w3.org/2000/svg">
<path fill-rule="evenodd" clip-rule="evenodd" d="M36.6206 9.15234C36.0977 9.15234 35.521 9.44387 35.291 9.96774L32.8468 15.5704L31.9665 9.96774C31.863 9.44394 31.507 9.15234 30.9437 9.15234H27.8473L30.4957 18.4571C30.5445 18.6356 30.5537 18.8334 30.518 19.0415C30.3794 19.8179 29.6376 20.4479 28.8609 20.4479H27.1269C26.6866 20.4479 26.3967 20.7206 26.2548 21.3381L25.8696 23.644H28.9233C30.5165 23.644 32.3874 22.8436 33.6354 20.6304L39.7498 9.15234H36.6206Z" fill="#252F38"/>
<path fill-rule="evenodd" clip-rule="evenodd" d="M6.56198 6.375C7.47645 6.375 7.91835 6.7398 7.7574 7.65653L7.49393 9.14992H9.5949L9.13193 11.7735H7.02998L6.45743 15.0218C6.25957 16.1536 7.37985 16.3043 8.02253 16.3043C8.15063 16.3043 8.25705 16.3015 8.33318 16.297L7.81927 19.2226C7.66057 19.2395 7.49715 19.2614 7.1511 19.2614C5.55607 19.2614 2.53868 18.8341 3.132 15.4682L3.78165 11.7735H2.25L2.71103 9.14992H4.22767L4.71585 6.375H6.56198Z" fill="#252F38"/>
<path fill-rule="evenodd" clip-rule="evenodd" d="M24.2172 9.27051L23.6775 12.3293C24.3431 12.6693 24.799 13.3597 24.799 14.1573C24.799 15.2088 24.0108 16.0703 22.9959 16.1942L22.4565 19.2523C22.5518 19.2584 22.6487 19.2616 22.7452 19.2616C25.566 19.2616 27.8505 16.9754 27.8505 14.1572C27.8505 11.853 26.3205 9.90328 24.2172 9.27051Z" fill="#009FAE"/>
<path fill-rule="evenodd" clip-rule="evenodd" d="M21.8145 15.9857C21.1495 15.6476 20.6926 14.954 20.6926 14.1574C20.6926 13.1126 21.4825 12.2444 22.4969 12.1226L23.0357 9.06421C22.9398 9.05814 22.8423 9.05371 22.7464 9.05371C19.9279 9.05371 17.6421 11.3414 17.6421 14.1575C17.6421 16.4627 19.1728 18.4136 21.276 19.0464L21.8145 15.9857Z" fill="#009FAE"/>
<path fill-rule="evenodd" clip-rule="evenodd" d="M10.8111 9.15143H12.6164C13.5312 9.15143 13.9712 9.51691 13.8099 10.4339L13.6124 11.5434C14.285 10.1781 15.744 9.05176 17.2405 9.05176C17.4368 9.05176 17.6257 9.09061 17.6257 9.09061L17.0423 12.3986C17.0423 12.3986 16.7804 12.3377 16.3716 12.3377C15.5741 12.3377 14.2253 12.5907 13.4746 14.0892C13.2955 14.4585 13.1579 14.9078 13.0626 15.4491L12.4095 19.1655H9.04639L10.8111 9.15143Z" fill="#252F38"/>
<path fill-rule="evenodd" clip-rule="evenodd" d="M38.9263 19.3936C38.9263 19.3343 38.9065 19.2846 38.8638 19.2442C38.8221 19.204 38.7688 19.1849 38.7032 19.1849H38.483V19.6001H38.7032C38.7688 19.6001 38.8221 19.5794 38.8638 19.5421C38.9065 19.5025 38.9263 19.4545 38.9263 19.3936ZM39.1244 20.223H38.9326L38.6615 19.74H38.4831V20.223H38.3197V19.0393H38.7214C38.8249 19.0393 38.9132 19.0747 38.9856 19.1416C39.0573 19.2095 39.0955 19.294 39.0955 19.3936C39.0955 19.558 39.0095 19.667 38.8403 19.7186L39.1244 20.223ZM39.5807 19.6319C39.5807 19.8871 39.4915 20.1041 39.3131 20.2828C39.1366 20.4628 38.9203 20.5524 38.6704 20.5524C38.4213 20.5524 38.2075 20.4628 38.0294 20.2828C37.8535 20.1041 37.7659 19.8871 37.7659 19.6319C37.7659 19.3777 37.8535 19.1613 38.0294 18.9816C38.2075 18.8009 38.4213 18.7114 38.6704 18.7114C38.9203 18.7114 39.1366 18.8009 39.3131 18.9816C39.4915 19.1613 39.5807 19.3777 39.5807 19.6319ZM39.7502 19.6319C39.7502 19.9305 39.6444 20.1857 39.4335 20.395C39.2248 20.605 38.9705 20.7127 38.6704 20.7127C38.3734 20.7127 38.1192 20.605 37.9072 20.395C37.6969 20.1857 37.5908 19.9305 37.5908 19.6319C37.5908 19.3343 37.6969 19.0798 37.9072 18.8682C38.1191 18.6586 38.3734 18.5527 38.6704 18.5527C38.9705 18.5527 39.2248 18.6585 39.4335 18.8682C39.6444 19.0798 39.7502 19.3343 39.7502 19.6319Z" fill="#252F38"/>
</svg>
