<?xml version="1.0" encoding="utf-8"?>
<!-- Generator: Adobe Illustrator 16.0.0, SVG Export Plug-In . SVG Version: 6.00 Build 0)  -->
<!DOCTYPE svg PUBLIC "-//W3C//DTD SVG 1.1//EN" "http://www.w3.org/Graphics/SVG/1.1/DTD/svg11.dtd">
<svg version="1.1" id="Layer_1" xmlns="http://www.w3.org/2000/svg" xmlns:xlink="http://www.w3.org/1999/xlink" x="0px" y="0px"
	 width="42px" height="42px" viewBox="49.438 0 42 42" enable-background="new 49.438 0 42 42" xml:space="preserve">
<g id="Layer_2">
</g>
<g id="Layer_2_1_">
</g>
<g>
	<path fill="#8D92A7" d="M71.336,9.713h2.588V7.57h-5.389c-1.265-0.634-2.687-1-4.195-1c-5.185,0-9.402,4.218-9.402,9.402
		s4.218,9.402,9.402,9.402c2.615,0,4.982-1.075,6.688-2.805h3.896v-2.143h-2.307c0.691-1.28,1.089-2.739,1.116-4.287h12.204v-2.143
		H73.529C73.181,12.373,72.406,10.908,71.336,9.713z M64.34,23.375c-4.082,0-7.402-3.32-7.402-7.402s3.32-7.402,7.402-7.402
		s7.402,3.32,7.402,7.402S68.422,23.375,64.34,23.375z"/>
	<rect x="75.924" y="7.57" fill="#8D92A7" width="10.014" height="2.143"/>
	<rect x="76.924" y="20.428" fill="#8D92A7" width="9.014" height="2.143"/>
	<rect x="55.938" y="26.857" fill="#8D92A7" width="13.736" height="2.143"/>
	<rect x="71.674" y="26.857" fill="#8D92A7" width="14.264" height="2.143"/>
	<rect x="68.924" y="33.287" fill="#8D92A7" width="17.014" height="2.143"/>
	<rect x="55.938" y="33.287" fill="#8D92A7" width="10.986" height="2.143"/>
	<polygon fill="#8D92A7" points="65.34,9.713 63.34,9.713 63.34,16.375 67.89,21.12 69.333,19.735 65.34,15.57 	"/>
</g>
</svg>
