<?xml version="1.0" encoding="utf-8"?>
<!-- Generator: Adobe Illustrator 16.0.0, SVG Export Plug-In . SVG Version: 6.00 Build 0)  -->
<!DOCTYPE svg PUBLIC "-//W3C//DTD SVG 1.1//EN" "http://www.w3.org/Graphics/SVG/1.1/DTD/svg11.dtd">
<svg version="1.1" id="Layer_1" xmlns="http://www.w3.org/2000/svg" xmlns:xlink="http://www.w3.org/1999/xlink" x="0px" y="0px"
	 width="42px" height="42px" viewBox="0 0 42 42" enable-background="new 0 0 42 42" xml:space="preserve">
<g id="Layer_2">
</g>
<g>
	<path fill="#8D92A7" d="M32.5,20.5h-24v-15h24V20.5z M10.5,18.5h20v-11h-20V18.5z"/>
</g>
<g>
	<path fill="#8D92A7" d="M32.5,38.5h-24v-15h24V38.5z M10.5,36.5h20v-11h-20V36.5z"/>
</g>
<rect x="4.5" y="5.5" fill="#8D92A7" width="2" height="3"/>
<rect x="4.5" y="11.5" fill="#8D92A7" width="2" height="3"/>
<rect x="4.5" y="17.5" fill="#8D92A7" width="2" height="3"/>
<rect x="4.5" y="23.5" fill="#8D92A7" width="2" height="3"/>
<rect x="4.5" y="29.5" fill="#8D92A7" width="2" height="3"/>
<rect x="4.5" y="35.5" fill="#8D92A7" width="2" height="3"/>
<rect x="34.5" y="5.5" fill="#8D92A7" width="2" height="3"/>
<rect x="34.5" y="11.5" fill="#8D92A7" width="2" height="3"/>
<rect x="34.5" y="17.5" fill="#8D92A7" width="2" height="3"/>
<rect x="34.5" y="23.5" fill="#8D92A7" width="2" height="3"/>
<rect x="34.5" y="29.5" fill="#8D92A7" width="2" height="3"/>
<rect x="34.5" y="35.5" fill="#8D92A7" width="2" height="3"/>
</svg>
