<?xml version="1.0" encoding="utf-8"?>
<!-- Generator: Adobe Illustrator 16.0.0, SVG Export Plug-In . SVG Version: 6.00 Build 0)  -->
<!DOCTYPE svg PUBLIC "-//W3C//DTD SVG 1.1//EN" "http://www.w3.org/Graphics/SVG/1.1/DTD/svg11.dtd">
<svg version="1.1" id="Layer_1" xmlns="http://www.w3.org/2000/svg" xmlns:xlink="http://www.w3.org/1999/xlink" x="0px" y="0px"
	 width="42px" height="42px" viewBox="49.438 0 42 42" enable-background="new 49.438 0 42 42" xml:space="preserve">
<g id="Layer_2">
</g>
<g id="Layer_2_1_">
</g>
<path fill="#8D92A7" d="M84.241,24.201c-0.894-3.798-3.313-7.005-6.576-8.947h5.848v-2H73.262c-0.413-1.167-1.516-2.008-2.824-2.008
	s-2.411,0.841-2.824,2.008H57.362v2h5.848c-3.265,1.942-5.683,5.149-6.577,8.947c-1.533,0.287-2.695,1.629-2.695,3.246
	c0,1.827,1.48,3.307,3.307,3.307c1.827,0,3.307-1.479,3.307-3.307c0-1.329-0.789-2.468-1.92-2.993
	c1.121-4.418,4.65-7.878,9.111-8.89c0.488,1.001,1.506,1.697,2.695,1.697s2.207-0.696,2.695-1.697c4.46,1.012,7.989,4.472,9.11,8.89
	c-1.13,0.526-1.919,1.664-1.919,2.993c0,1.827,1.48,3.307,3.306,3.307c1.827,0,3.308-1.479,3.308-3.307
	C86.938,25.83,85.775,24.488,84.241,24.201z"/>
</svg>
